<svg xmlns="http://www.w3.org/2000/svg" width="93.004" height="93.004" viewBox="0 0 93.004 93.004">
  <g id="stamp_3_" data-name="stamp (3)" transform="translate(46.502 -2.996) rotate(45)">
    <g id="Group_17" data-name="Group 17" transform="translate(0 0)">
      <path id="Path_18" data-name="Path 18" d="M55.509,45.253H45.254V43.2a6.162,6.162,0,0,0-3.809-5.688c.777-4.66,2.022-9.024,6.034-16.06a14.364,14.364,0,1,0-24.286,1.066c3.034,4.378,4.5,9.793,5.362,14.993A6.162,6.162,0,0,0,24.745,43.2v2.051H14.491A10.266,10.266,0,0,0,4.237,55.507v4.239A2.051,2.051,0,0,0,6.287,61.8H8.338v2.051A6.16,6.16,0,0,0,14.491,70H55.509a6.16,6.16,0,0,0,6.153-6.153V61.8h2.051a2.051,2.051,0,0,0,2.051-2.051V55.507A10.266,10.266,0,0,0,55.509,45.253ZM26.564,20.185a10.254,10.254,0,1,1,17.351-.762c-4.284,7.513-5.658,12.268-6.551,17.626H32.635C31.648,31.12,30.025,25.179,26.564,20.185ZM41.153,43.2v2.051H28.847V43.2A2.053,2.053,0,0,1,30.9,41.151h8.2A2.053,2.053,0,0,1,41.153,43.2ZM57.56,63.847A2.053,2.053,0,0,1,55.509,65.9H14.491a2.053,2.053,0,0,1-2.051-2.051V61.8H57.56Zm4.1-6.153H8.338V55.507a6.16,6.16,0,0,1,6.153-6.153H55.509a6.16,6.16,0,0,1,6.153,6.153Z" fill="#f39539"/>
    </g>
  </g>
</svg>
