<svg xmlns="http://www.w3.org/2000/svg" width="62.928" height="70" viewBox="0 0 62.928 70">
  <path id="duvet_1_" data-name="duvet (1)" d="M60.312,0H26.038L3.536,19.308v44.54A6.159,6.159,0,0,0,9.688,70H60.312a6.159,6.159,0,0,0,6.152-6.152V6.152A6.159,6.159,0,0,0,60.312,0Zm2.051,6.152V13.18h-10.6V4.1h8.554A2.053,2.053,0,0,1,62.363,6.152ZM23.972,22.258a4.881,4.881,0,0,0,4.876-4.876v-.1h4.1v9.078H22.344v-4.1Zm8.978,8.2v9.078H22.344V30.461Zm4.1,0H47.656v9.078H37.051Zm0-4.1V17.281H47.656v9.078Zm0-13.18V4.1H47.656V13.18Zm-4.1,0h-4.1V4.1h4.1Zm-8.2,4.2a.775.775,0,0,1-.774.774h-12.8L24.746,6.513Zm-6.5,4.876v4.1H7.637v-4.1Zm0,8.2v9.078H7.637V30.461Zm0,13.18v9.078H7.637V43.641Zm4.1,0H32.949v9.078H22.344ZM32.949,56.82V65.9H22.344V56.82Zm4.1,0H47.656V65.9H37.051Zm0-4.1V43.641H47.656v9.078Zm14.707-9.078h10.6v9.078h-10.6Zm0-4.1V30.461h10.6v9.078Zm0-13.18V17.281h10.6v9.078ZM7.637,63.848V56.82h10.6V65.9H9.688a2.053,2.053,0,0,1-2.051-2.051ZM60.312,65.9H51.758V56.82h10.6v7.027A2.053,2.053,0,0,1,60.312,65.9Z" transform="translate(-3.536)" fill="#f39539"/>
</svg>
