<svg xmlns="http://www.w3.org/2000/svg" width="70" height="65.625" viewBox="0 0 70 65.625">
  <g id="coins" transform="translate(0 -2.188)">
    <g id="Group_12" data-name="Group 12">
      <g id="Group_11" data-name="Group 11">
        <path id="Path_13" data-name="Path 13" d="M45.938,2.188c-11.664,0-24.062,3.832-24.062,10.938v8.75a2.188,2.188,0,0,0,4.375,0V19.6c4.642,2.927,12.307,4.467,19.688,4.467s15.046-1.54,19.688-4.467v2.279c0,2.139-5.381,5.552-15.5,6.4a2.187,2.187,0,0,0,.179,4.366c.066,0,.122,0,.188-.009,5.7-.477,11.371-1.951,15.129-4.344v2.341c0,1.868-3.964,4.554-11.318,5.854a2.187,2.187,0,0,0,.376,4.34,1.91,1.91,0,0,0,.385-.035,29.222,29.222,0,0,0,10.557-3.693v2.284c0,1.868-3.964,4.554-11.318,5.854a2.187,2.187,0,0,0,.376,4.34,1.91,1.91,0,0,0,.385-.035,29.3,29.3,0,0,0,10.557-3.693v2.284c0,1.868-3.964,4.554-11.318,5.854a2.187,2.187,0,0,0,.376,4.34,1.91,1.91,0,0,0,.385-.035,29.3,29.3,0,0,0,10.557-3.693v2.284c0,2.139-5.381,5.552-15.5,6.4a2.187,2.187,0,0,0,.179,4.366c.066,0,.122,0,.188-.009C60.2,66.815,70,63.179,70,56.875V13.125C70,6.02,57.6,2.188,45.938,2.188Zm0,17.5c-12.018,0-19.687-3.889-19.687-6.562s7.669-6.562,19.688-6.562,19.688,3.889,19.688,6.563S57.956,19.688,45.938,19.688Z" fill="#f39539"/>
      </g>
    </g>
    <g id="Group_14" data-name="Group 14">
      <g id="Group_13" data-name="Group 13">
        <path id="Path_14" data-name="Path 14" d="M24.063,28.438C12.4,28.438,0,32.27,0,39.375v17.5c0,7.1,12.4,10.938,24.063,10.938S48.125,63.98,48.125,56.875v-17.5C48.125,32.27,35.726,28.438,24.063,28.438ZM43.75,56.875c0,2.673-7.669,6.563-19.687,6.563S4.375,59.548,4.375,56.875V54.6c4.642,2.927,12.307,4.467,19.688,4.467S39.108,57.522,43.75,54.6Zm0-8.75c0,2.673-7.669,6.563-19.687,6.563S4.375,50.8,4.375,48.125V45.846c4.642,2.927,12.307,4.467,19.688,4.467s15.046-1.54,19.688-4.467ZM24.063,45.938c-12.018,0-19.687-3.889-19.687-6.562s7.669-6.562,19.688-6.562S43.75,36.7,43.75,39.375,36.081,45.938,24.063,45.938Z" fill="#f39539"/>
      </g>
    </g>
  </g>
</svg>
