<svg xmlns="http://www.w3.org/2000/svg" xmlns:xlink="http://www.w3.org/1999/xlink" width="465.78" height="43.68" viewBox="0 0 465.78 43.68">
  <defs>
    <linearGradient id="linear-gradient" x1="0.502" x2="0.498" y2="1" gradientUnits="objectBoundingBox">
      <stop offset="0" stop-color="#e02a2f"/>
      <stop offset="0.137" stop-color="#983493"/>
      <stop offset="0.338" stop-color="#512e84"/>
      <stop offset="0.492" stop-color="#4a4997"/>
      <stop offset="0.58" stop-color="#3a479d"/>
      <stop offset="0.679" stop-color="#3a479d"/>
      <stop offset="0.738" stop-color="#3a479d"/>
      <stop offset="1" stop-color="#89c759"/>
    </linearGradient>
  </defs>
  <path id="Gradient_Overlay" data-name="Gradient Overlay" d="M818.1,842.267h10.5v17.4a27.379,27.379,0,0,1-8.28,3.96,32.951,32.951,0,0,1-9.36,1.38,25.033,25.033,0,0,1-11.88-2.79,20.813,20.813,0,0,1-8.28-7.77,22.707,22.707,0,0,1,0-22.56,20.716,20.716,0,0,1,8.34-7.77,25.649,25.649,0,0,1,12.06-2.79,26.865,26.865,0,0,1,10.56,1.98,20.356,20.356,0,0,1,7.8,5.7l-7.56,6.84a13.326,13.326,0,0,0-10.2-4.68,11.3,11.3,0,0,0-12,12,12.682,12.682,0,0,0,1.5,6.21,10.756,10.756,0,0,0,4.2,4.26,12.315,12.315,0,0,0,6.18,1.53,15.178,15.178,0,0,0,6.42-1.38Zm39.24,22.74a25.121,25.121,0,0,1-11.97-2.82,21.475,21.475,0,0,1,0-38.04,26.814,26.814,0,0,1,23.94,0,21.475,21.475,0,0,1,0,38.04A25.12,25.12,0,0,1,857.341,865.007Zm0-9.84a11.249,11.249,0,0,0,5.76-1.5,10.789,10.789,0,0,0,4.08-4.23,13.854,13.854,0,0,0,0-12.54,10.789,10.789,0,0,0-4.08-4.23,11.809,11.809,0,0,0-11.52,0,10.789,10.789,0,0,0-4.08,4.23,13.854,13.854,0,0,0,0,12.54,10.789,10.789,0,0,0,4.08,4.23A11.249,11.249,0,0,0,857.341,855.167Zm29.58-33H898.8v32.58h20.04v9.42h-31.92Zm36.6,0h19.86a27.8,27.8,0,0,1,12.24,2.58,19.433,19.433,0,0,1,8.28,7.32,22.424,22.424,0,0,1,0,22.2,19.433,19.433,0,0,1-8.28,7.32,27.8,27.8,0,0,1-12.24,2.58h-19.86Zm19.38,32.52a12.177,12.177,0,0,0,8.67-3.06q3.27-3.06,3.27-8.46t-3.27-8.46a12.177,12.177,0,0,0-8.67-3.06h-7.5v23.04Zm63.9.3v9.18h-33.72v-42h32.94v9.18h-21.18v7.08h18.66v8.88h-18.66v7.68Zm46.56-32.82v42h-9.78l-18.54-22.38v22.38H1013.4v-42h9.78l18.54,22.38v-22.38Zm45.06,0a23.954,23.954,0,0,1,9.9,1.89,14.812,14.812,0,0,1,0,27.24,23.954,23.954,0,0,1-9.9,1.89h-7.32v10.98h-11.88v-42Zm-.72,21.66a8.3,8.3,0,0,0,5.52-1.59,5.633,5.633,0,0,0,1.86-4.53,5.724,5.724,0,0,0-1.86-4.56,8.194,8.194,0,0,0-5.52-1.62h-6.6v12.3Zm51.18,12.18h-17.76l-3.3,8.16H1115.7l18.54-42h11.7l18.6,42h-12.36Zm-3.48-8.76-5.4-13.44-5.4,13.44Zm42.84,17.76a24.856,24.856,0,0,1-11.85-2.79,20.863,20.863,0,0,1-8.25-7.77,22.707,22.707,0,0,1,0-22.56,20.863,20.863,0,0,1,8.25-7.77,24.855,24.855,0,0,1,11.85-2.79,25.434,25.434,0,0,1,10.38,2.04,19.972,19.972,0,0,1,7.68,5.88l-7.56,6.84a12.435,12.435,0,0,0-9.9-4.92,12.218,12.218,0,0,0-6.09,1.5,10.41,10.41,0,0,0-4.14,4.23,14.107,14.107,0,0,0,0,12.54,10.41,10.41,0,0,0,4.14,4.23,12.218,12.218,0,0,0,6.09,1.5,12.435,12.435,0,0,0,9.9-4.92l7.56,6.84a19.972,19.972,0,0,1-7.68,5.88A25.435,25.435,0,0,1,1188.241,865.007Zm39.54-16.08-4.44,4.74v10.5h-11.76v-42h11.76v17.46l16.26-17.46h13.08l-17.16,18.6,18.06,23.4h-13.8Z" transform="translate(-787.801 -821.327)" fill="url(#linear-gradient)"/>
</svg>
