<svg xmlns="http://www.w3.org/2000/svg" width="16" height="16" viewBox="0 0 16 16">
   <g id="instagram_10_" data-name="instagram (10)" transform="translate(0)">
      <path class="net" id="Path_28" data-name="Path 28"
            d="M11.669,0H4.331A4.336,4.336,0,0,0,0,4.331v7.338A4.336,4.336,0,0,0,4.331,16h7.338A4.336,4.336,0,0,0,16,11.669V4.331A4.336,4.336,0,0,0,11.669,0ZM8,12.375A4.375,4.375,0,1,1,12.375,8,4.38,4.38,0,0,1,8,12.375Zm4.479-7.718a1.293,1.293,0,1,1,1.293-1.293A1.294,1.294,0,0,1,12.479,4.657Zm0,0"
            fill="#fff"></path>
      <path class="net" id="Path_29" data-name="Path 29"
            d="M8,4.563A3.437,3.437,0,1,0,11.437,8,3.441,3.441,0,0,0,8,4.563Zm0,0"
            fill="#fff"></path>
      <path class="net" id="Path_30" data-name="Path 30"
            d="M12.479,3.009a.355.355,0,1,0,.355.355A.355.355,0,0,0,12.479,3.009Zm0,0"
            fill="#fff"></path>
   </g>
</svg>
