<svg xmlns="http://www.w3.org/2000/svg" width="70" height="60.904" viewBox="0 0 70 60.904">
  <g id="briefcase" transform="translate(0 -4.548)">
    <path id="Path_15" data-name="Path 15" d="M63.032,15.874H47.948V9.8A5.254,5.254,0,0,0,42.7,4.548H27.3A5.254,5.254,0,0,0,22.052,9.8v6.078H6.968A6.976,6.976,0,0,0,0,22.842V58.484a6.976,6.976,0,0,0,6.968,6.968H63.032A6.976,6.976,0,0,0,70,58.484V22.842a6.976,6.976,0,0,0-6.968-6.968ZM26.5,9.8a.8.8,0,0,1,.8-.8H42.7a.8.8,0,0,1,.8.8v6.078H26.5ZM4.445,22.842a2.526,2.526,0,0,1,2.523-2.523H63.032a2.526,2.526,0,0,1,2.523,2.523v3.29a7.02,7.02,0,0,1-5.032,6.706L37.275,39.606a8.124,8.124,0,0,1-4.551,0L9.477,32.838a7.019,7.019,0,0,1-5.032-6.706ZM63.032,61.007H6.968a2.526,2.526,0,0,1-2.523-2.523v-23.3a11.379,11.379,0,0,0,3.789,1.923C33.915,44.583,32.595,44.377,35,44.377c2.437,0,1.055.214,26.766-7.271a11.376,11.376,0,0,0,3.789-1.923v23.3a2.526,2.526,0,0,1-2.523,2.523Z" fill="#f39539"/>
  </g>
</svg>
