<svg xmlns="http://www.w3.org/2000/svg" width="64.807" height="70" viewBox="0 0 64.807 70">
  <g id="money-back" transform="translate(-2.597)">
    <g id="Group_10" data-name="Group 10">
      <path id="Path_10" data-name="Path 10" d="M57.913,14.684A32.16,32.16,0,0,0,39.624,5.521l2.02-2.02a2.051,2.051,0,0,0-2.9-2.9L33.55,5.794a2.051,2.051,0,0,0,0,2.9l5.193,5.193a2.051,2.051,0,1,0,2.9-2.9L40.486,9.831a28.27,28.27,0,1,1-15,1.1A2.051,2.051,0,1,0,24.1,7.072a32.412,32.412,0,1,0,33.81,7.612Z" fill="#f39539"/>
      <path id="Path_11" data-name="Path 11" d="M13.929,37.6A21.07,21.07,0,1,0,35,16.526,21.094,21.094,0,0,0,13.929,37.6ZM35,20.628A16.969,16.969,0,1,1,18.031,37.6,16.988,16.988,0,0,1,35,20.628Z" fill="#f39539"/>
      <path id="Path_12" data-name="Path 12" d="M37.5,35.562a17.436,17.436,0,0,1-4.4-2.041,1.294,1.294,0,0,1-.257-1.2,1.817,1.817,0,0,1,1.187-1.435,3.38,3.38,0,0,1,3.059.443,2.051,2.051,0,1,0,2.456-3.285,7.461,7.461,0,0,0-2.605-1.209v-.55a2.051,2.051,0,0,0-4.1,0v.677a5.876,5.876,0,0,0-4.026,4.6,5.267,5.267,0,0,0,1.757,5.185,20.263,20.263,0,0,0,5.568,2.681,2.089,2.089,0,0,1,1.537,2.477,2.82,2.82,0,0,1-2.8,2.379,4.842,4.842,0,0,1-3.514-.917A2.051,2.051,0,0,0,29.116,46.8a8.35,8.35,0,0,0,3.722,1.491v.615a2.051,2.051,0,1,0,4.1,0v-.825a6.735,6.735,0,0,0,2.611-1.5,7.043,7.043,0,0,0,2.169-4A6.205,6.205,0,0,0,37.5,35.562Z" fill="#f39539"/>
    </g>
  </g>
</svg>
