<svg xmlns="http://www.w3.org/2000/svg" width="70" height="70" viewBox="0 0 70 70">
  <g id="support_1_" data-name="support (1)" transform="translate(0)">
    <path id="Path_7" data-name="Path 7" d="M60.472,27.1V25.472a25.472,25.472,0,0,0-50.943,0V27.1a13.15,13.15,0,0,0,3.593,25.792,6.13,6.13,0,0,0,6.14-6.129V32.726a6.125,6.125,0,0,0-5.615-6.108V25.472a21.354,21.354,0,1,1,42.708,0v1.146a6.124,6.124,0,0,0-5.615,6.108V46.76a6.126,6.126,0,0,0,5.615,6.106A9.267,9.267,0,0,1,47.1,62.314H42.615a5.635,5.635,0,0,0-5.236-3.569H32.621a5.627,5.627,0,1,0,0,11.255h4.758a5.635,5.635,0,0,0,5.236-3.569H47.1A13.391,13.391,0,0,0,60.472,53.055V52.38a13.15,13.15,0,0,0,0-25.283Zm-45.328,5.63V46.76a2.021,2.021,0,0,1-2.181,2.01,9.028,9.028,0,0,1,.183-18.054h.035a2,2,0,0,1,1.963,2.011ZM37.379,65.882H32.621a1.51,1.51,0,1,1,0-3.02h4.758a1.51,1.51,0,0,1,0,3.02Zm28.49-25.637a9.051,9.051,0,0,1-8.831,8.524,2.022,2.022,0,0,1-2.181-2.01V32.726a1.994,1.994,0,0,1,1.955-2.011h.043A9.021,9.021,0,0,1,65.869,40.245Z" fill="#f39539"/>
    <path id="Path_8" data-name="Path 8" d="M36.456,51.121l9.507-9.507A7.582,7.582,0,1,0,35,31.143,7.582,7.582,0,1,0,24.038,41.614l9.507,9.507a2.059,2.059,0,0,0,2.911,0ZM26.949,33.809a3.464,3.464,0,0,1,4.893,0l1.7,1.7a2.059,2.059,0,0,0,2.912,0l1.7-1.7A3.46,3.46,0,1,1,43.051,38.7L35,46.753,26.949,38.7a3.458,3.458,0,0,1,0-4.893Z" fill="#f39539"/>
  </g>
</svg>
