<svg id="telegram_9_" data-name="telegram (9)" xmlns="http://www.w3.org/2000/svg" width="16"
height="13.537" viewBox="0 0 16 13.537">
<path class="net" id="Path_25" data-name="Path 25"
      d="M15.753.371A1.039,1.039,0,0,0,14.929,0a1.619,1.619,0,0,0-.575.115L.81,5.285c-.719.274-.816.686-.809.907s.126.626.859.86l.013,0,1.9.543,9.25-4.726a.468.468,0,0,1,.554.738h0L7.434,9.076l-.147.595L9.124,11.15,11.669,13.2l.007.005a1.455,1.455,0,0,0,.885.332,1.242,1.242,0,0,0,1.184-1.1L15.963,1.479a1.309,1.309,0,0,0-.21-1.108Zm0,0"
      fill="#fff"></path>
<path class="net" id="Path_26" data-name="Path 26"
      d="M6.554,8.732a.467.467,0,0,1,.114-.209l3.375-3.586-6.263,3.2L5.2,12.2a1.59,1.59,0,0,0,.351.583l1-4.055Zm0,0"
      fill="#fff"></path>
<path class="net" id="Path_27" data-name="Path 27"
      d="M6.425,13.163a1.439,1.439,0,0,0,.961-.413l1.04-.958L7.039,10.675Zm0,0"
      fill="#fff"></path>
</svg>
