<svg id="hulling" xmlns="http://www.w3.org/2000/svg" width="70" height="70" viewBox="0 0 70 70">
  <g id="Group_9" data-name="Group 9">
    <path id="Path_9" data-name="Path 9" d="M70,53.163v-41.1H57.723V48.022H48V40.793h5.01V25.205H41.67V18.744L50.312,7.756V0H19.532V7.756l8.642,10.988v6.461H16.835v5.746H12.062V23.683H7.97V35.048h8.865v5.746h5.01v7.229H7.97V65.9H0V70H70V65.9H61.815V62.549A9.484,9.484,0,0,0,70,53.163ZM57.723,52.148v4.068H12.062V52.148ZM61.815,16.16h4.092v37a5.387,5.387,0,0,1-4.092,5.224ZM23.624,4.1h22.6v2.24L38.63,15.986H31.213L23.624,6.337Zm8.642,15.986h5.311v5.122H32.266ZM20.927,36.7V29.3H48.916V36.7Zm5.01,4.1H43.906v7.229H25.937ZM12.062,65.9v-5.59H57.723V65.9Z" fill="#f39539"/>
  </g>
</svg>
