<svg id="delivery-box" xmlns="http://www.w3.org/2000/svg" width="70" height="70" viewBox="0 0 70 70">
  <g id="Group_4" data-name="Group 4">
    <g id="Group_3" data-name="Group 3">
      <path id="Path_4" data-name="Path 4" d="M69.961,15.12a2.113,2.113,0,0,0-.088-.433,2.206,2.206,0,0,0-.166-.407,1.616,1.616,0,0,0-.074-.184L60.882.971A2.2,2.2,0,0,0,59.063,0H10.938a2.192,2.192,0,0,0-1.82.976L.368,14.1a1.345,1.345,0,0,0-.074.184,2.206,2.206,0,0,0-.166.407,2.113,2.113,0,0,0-.088.433A1.19,1.19,0,0,0,0,15.313V65.625A4.379,4.379,0,0,0,4.375,70h61.25A4.379,4.379,0,0,0,70,65.625V15.313A1.363,1.363,0,0,0,69.961,15.12ZM57.89,4.375l5.836,8.75H43.417l-1.461-8.75Zm-25.414,0H37.52l1.461,8.75H31.019ZM30.625,17.5h8.75v7.906l-3.684-1.234a2.261,2.261,0,0,0-1.382,0l-3.684,1.234ZM12.11,4.375H28.044l-1.461,8.75H6.274ZM65.625,67.813V65.625H4.375V17.5H26.25V28.438a2.169,2.169,0,0,0,.91,1.772,2.221,2.221,0,0,0,1.969.306L35,28.556l5.871,1.956a2.221,2.221,0,0,0,.691.114,2.2,2.2,0,0,0,2.188-2.187V17.5H65.625V65.625h0Z" fill="#f39539"/>
    </g>
  </g>
  <g id="Group_6" data-name="Group 6">
    <g id="Group_5" data-name="Group 5">
      <path id="Path_5" data-name="Path 5" d="M24.063,48.125H10.938a2.188,2.188,0,0,0,0,4.375H24.063a2.188,2.188,0,0,0,0-4.375Z" fill="#f39539"/>
    </g>
  </g>
  <g id="Group_8" data-name="Group 8">
    <g id="Group_7" data-name="Group 7">
      <path id="Path_6" data-name="Path 6" d="M17.5,56.875H10.938a2.188,2.188,0,0,0,0,4.375H17.5a2.188,2.188,0,0,0,0-4.375Z" fill="#f39539"/>
    </g>
  </g>
</svg>
