<svg xmlns="http://www.w3.org/2000/svg" width="70" height="65.136" viewBox="0 0 70 65.136">
  <g id="scissors_1_" data-name="scissors (1)" transform="translate(0 -2.432)">
    <path id="Path_19" data-name="Path 19" d="M19.246,12.623a6.428,6.428,0,1,0,2.426,4.28,6.436,6.436,0,0,0-2.426-4.28Zm-2.12,6.5a2.325,2.325,0,1,1,.474-1.715,2.327,2.327,0,0,1-.474,1.715Z" fill="#f39539"/>
    <path id="Path_20" data-name="Path 20" d="M69.21,51.568,47.937,35,69.21,18.431a2.052,2.052,0,0,0,.356-2.879L66.874,12.1a6.427,6.427,0,0,0-9.022-1.115L37.484,26.848,29.985,21a15.182,15.182,0,1,0-7.907,10.138L27.031,35c-2.579,2.012-4.077,3.18-4.951,3.864A15.182,15.182,0,1,0,29.985,49l7.5-5.848L57.852,59.015A6.435,6.435,0,0,0,66.874,57.9l2.692-3.451a2.052,2.052,0,0,0-.356-2.88ZM60.376,14.221a2.324,2.324,0,0,1,3.263.4l1.43,1.833L44.6,32.4,40.82,29.45ZM26.421,46.578a2.053,2.053,0,0,0-.753,2.215q.014.049.03.1a11.079,11.079,0,1,1-4.546-5.835,2.052,2.052,0,0,0,2.383-.123l6.833-5.33,3.781,2.949Zm37.218,8.8a2.328,2.328,0,0,1-3.263.4L23.518,27.056a2.052,2.052,0,0,0-2.367-.111,11.078,11.078,0,1,1,4.543-5.825,2.051,2.051,0,0,0,.684,2.269L65.069,53.542Z" fill="#f39539"/>
    <path id="Path_21" data-name="Path 21" d="M11.339,47.239a6.428,6.428,0,1,0,9.022,1.116,6.386,6.386,0,0,0-9.022-1.116ZM17.6,52.593a2.325,2.325,0,1,1-.474-1.715,2.31,2.31,0,0,1,.474,1.715Z" fill="#f39539"/>
  </g>
</svg>
