<svg xmlns="http://www.w3.org/2000/svg" width="70" height="70" viewBox="0 0 70 70">
  <g id="zip" transform="translate(0 0)">
    <path id="Path_22" data-name="Path 22" d="M69.4.6a2.051,2.051,0,0,0-2.9,0L62.842,4.258,60.425,1.841a2.051,2.051,0,1,0-2.9,2.9l2.417,2.417-2.9,2.9L54.624,7.641a2.051,2.051,0,1,0-2.9,2.9l2.417,2.417-2.9,2.9-2.417-2.417a2.051,2.051,0,0,0-2.9,2.9l2.417,2.417-5.1,5.1-4.35-4.35a2.05,2.05,0,0,0-2.9,0l-4.065,4.066A15.142,15.142,0,0,1,25,27.409,14.326,14.326,0,0,0,14.452,42.6L3.965,51.059A10.65,10.65,0,0,0,10.653,70q.282,0,.566-.015a10.665,10.665,0,0,0,7.722-3.95L27.4,55.548q.671.063,1.339.064A14.324,14.324,0,0,0,42.591,45a15.142,15.142,0,0,1,3.834-6.927l4.065-4.065a2.051,2.051,0,0,0,0-2.9l-4.35-4.35,5.1-5.1,2.417,2.417a2.051,2.051,0,0,0,2.9-2.9l-2.417-2.417,2.9-2.9,2.417,2.417a2.051,2.051,0,0,0,2.9-2.9l-2.417-2.417,2.9-2.9,2.417,2.417a2.051,2.051,0,0,0,2.9-2.9L65.742,7.158,69.4,3.5a2.05,2.05,0,0,0,0-2.9ZM15.748,63.461a6.549,6.549,0,0,1-9.729.52,6.549,6.549,0,0,1,.52-9.729l11.378-9.176.011-.009L24.8,39.524a4.022,4.022,0,0,1,3.542-.768l-2.022,2.022a2.051,2.051,0,1,0,2.9,2.9l2.022-2.022a4.026,4.026,0,0,1-.768,3.542l-5.541,6.871-.013.016ZM43.524,35.176a19.182,19.182,0,0,0-4.9,8.768,10.212,10.212,0,0,1-7.8,7.35l2.84-3.522a8.12,8.12,0,0,0,.685-9.226l2.6-2.6a2.051,2.051,0,0,0-2.9-2.9l-2.6,2.6a8.12,8.12,0,0,0-9.226.685l-3.522,2.84a10.211,10.211,0,0,1,7.35-7.8,19.18,19.18,0,0,0,8.768-4.9l2.615-2.615,4.35,4.35,4.35,4.35Z" fill="#f39539"/>
    <path id="Path_23" data-name="Path 23" d="M11.82,55.28l-2.9,2.9a2.051,2.051,0,1,0,2.9,2.9l2.9-2.9a2.051,2.051,0,0,0-2.9-2.9Z" fill="#f39539"/>
  </g>
</svg>
